<svg width="219" height="90" viewBox="0 0 219 90" xmlns="http://www.w3.org/2000/svg"><g fill-rule="nonzero" fill="none"><path d="M88.733 48.169h-4.546v11.557h-5.472V29.821h13.091a9.038 9.038 0 0 1 7.111 2.312 9.077 9.077 0 0 1 2.95 6.883c.18 4.39-2.951 8.218-7.283 8.9l8.04 11.81h-6.482L88.733 48.17zm-4.546-4.977h7.661c3.031 0 4.588-1.476 4.588-4.218s-1.557-4.218-4.588-4.218h-7.66v8.436zM124.47 46.693v13.033h-4.21l-.336-3.079a9.38 9.38 0 0 1-7.534 3.628 6.894 6.894 0 0 1-5.221-1.762 6.924 6.924 0 0 1-2.272-5.03c0-4.892 4.504-6.832 8.671-6.832 2.063.003 4.116.287 6.104.843v-.675c0-3.121-1.684-4.64-5.01-4.64-2.328 0-4.597.738-6.482 2.11l-1.936-3.628a15.384 15.384 0 0 1 9.302-2.952 8.03 8.03 0 0 1 6.643 2.317 8.066 8.066 0 0 1 2.281 6.667zm-4.967 4.218a19.284 19.284 0 0 0-5.22-.76c-2.525 0-4.461.844-4.461 3.037 0 2.194 1.431 2.826 3.62 2.826a5.644 5.644 0 0 0 6.061-5.061v-.042zM129.69 27.712h5.009v32.014h-5.01zM150.273 55.846c2.042-.018 4-.818 5.472-2.236l3.157 3.29a12.277 12.277 0 0 1-8.671 3.375 10.974 10.974 0 0 1-8.126-3.234 11.021 11.021 0 0 1-3.197-8.155 10.683 10.683 0 0 1 3.106-8.065 10.637 10.637 0 0 1 8.048-3.112 9.67 9.67 0 0 1 7.368 2.707 9.712 9.712 0 0 1 2.945 7.29 21.595 21.595 0 0 1-.42 2.91h-15.912a5.939 5.939 0 0 0 6.23 5.23zm-6.23-8.858h11.407a4.981 4.981 0 0 0-1.69-3.6 4.96 4.96 0 0 0-3.782-1.208 5.77 5.77 0 0 0-5.935 4.808zM164.164 32.14a3.16 3.16 0 0 1 3.156-3.163 3.16 3.16 0 0 1 3.157 3.164 3.16 3.16 0 0 1-3.157 3.163 3.16 3.16 0 0 1-3.156-3.163zm5.64 27.586h-5.051v-21.47h4.967l.084 21.47zM195.396 41.462l-3.493.296a7.774 7.774 0 0 1 1.01 4.007 8.148 8.148 0 0 1-2.729 6.054 8.113 8.113 0 0 1-6.321 2.002 11.93 11.93 0 0 1-2.526-.253c-1.178 0-1.978.59-1.978 1.687s.758 1.476 1.978 1.476h3.284c7.324 0 10.86 2.025 10.86 6.791 0 4.767-3.41 7.424-10.86 7.424-7.45 0-11.24-3.037-11.24-7.128a4.935 4.935 0 0 1 2.99-4.556 4.77 4.77 0 0 1-1.684-3.67 4.218 4.218 0 0 1 2.736-3.964 7.557 7.557 0 0 1-2.568-5.863 8.148 8.148 0 0 1 2.742-6.072 8.113 8.113 0 0 1 6.35-1.984 12.1 12.1 0 0 1 3.62.548h7.913l-.084 3.205zm-10.902 19.36h-3.872c-1.474.634-2.19 1.477-2.19 2.743 0 1.265 1.81 3.205 6.146 3.205s5.767-1.096 5.767-3.248c0-2.15-1.431-2.7-5.85-2.7zm3.746-15.057c0-2.404-1.515-3.839-4.209-3.839s-4.209 1.435-4.209 3.839 1.515 3.838 4.21 3.838c2.693 0 4.208-1.434 4.208-3.838zM218.884 46.144v13.582h-4.925V47.072a4.224 4.224 0 0 0-1.132-3.662 4.204 4.204 0 0 0-3.624-1.23 5.129 5.129 0 0 0-3.79 1.278 5.15 5.15 0 0 0-1.725 3.614v12.654h-4.966V27.712h4.966v12.95a8.41 8.41 0 0 1 6.777-2.953 7.989 7.989 0 0 1 6.088 2.335 8.023 8.023 0 0 1 2.33 6.1z" fill="#006937"/><path d="M40.58 85.835h-1.432v3.712h-.757v-3.712H36.96v-.632h3.62v.632zm5.261 3.712h-.758v-3.121l-1.178 2.657h-.8l-1.01-2.657v3.121h-.926V85.33h.926l1.305 2.995 1.305-2.995h1.01l.126 4.218zM33.76 9.026l5.767-3.29V0L33.76 3.332zM33.76 56.478l14.943-8.646V34.25L33.76 42.897zM37.002 75.164l8.84-5.146v-7.044l-8.84 5.104z" fill="#74A900"/><path fill="#A7C140" d="M57.08 42.98l10.439-6.073v-8.31l-10.44 6.075z"/><path fill="#74A900" d="M33.76 28.809l11.913-6.918V10.714L33.76 17.589zM25.763 4.598l4.756 2.741a6.54 6.54 0 0 1 3.157 5.694v3.164l-4.63-2.742a6.582 6.582 0 0 1-3.283-5.652V4.598z"/><path fill="#A7C140" d="M47.146 30.791l8.418-4.893v-7.381l-8.418 4.893zM47.104 61.287l9.976-5.779V45.216l-9.976 5.737zM58.595 60.95l6.02-3.501v-6.285l-6.02 3.458zM54.091 15.944l4.504-2.615V8.858l-4.504 2.615z"/><path d="M17.47 44.879l-4.84-2.7a9.494 9.494 0 0 1-4.84-8.435V29.02l4.84 2.868a9.495 9.495 0 0 1 4.714 8.436l.127 4.555zM10.82 56.774l-6.103-3.501a9.537 9.537 0 0 1-4.715-8.436V39.69l6.104 3.543a9.494 9.494 0 0 1 4.714 8.183v5.357zM6.232 29.02l-2.484-1.435a4.6 4.6 0 0 1-2.273-3.964v-2.152l2.484 1.434a4.6 4.6 0 0 1 2.273 3.965v2.152zM20.628 70.904l-5.136-2.995a7.764 7.764 0 0 1-3.914-6.79V59.05l5.135 2.953a7.89 7.89 0 0 1 3.915 6.79v2.11zM18.86 21.807l-3.41-1.983a5.148 5.148 0 0 1-2.61-4.513v-4.218l3.41 1.983a5.19 5.19 0 0 1 2.61 4.555v4.176z" fill="#4A8B2C"/><path d="M33.676 89.547h-3.115V68.71l-5.977-3.332a11.477 11.477 0 0 1-5.724-9.912v-9.701l9.218 5.314a11.435 11.435 0 0 1 5.598 9.913v28.555zM33.676 44.12l-7.703-4.513a10.718 10.718 0 0 1-5.345-9.322V21.09l7.745 4.513a10.718 10.718 0 0 1 5.303 9.322v9.195z" fill="#74A900"/></g></svg>
